<?xml version="1.0" encoding="utf-8"?>
<!-- Generator: Adobe Illustrator 26.3.1, SVG Export Plug-In . SVG Version: 6.00 Build 0)  -->
<svg version="1.1" id="monogramme" xmlns="http://www.w3.org/2000/svg" xmlns:xlink="http://www.w3.org/1999/xlink" x="0px" y="0px"
	 viewBox="0 0 65.9 79.4" style="enable-background:new 0 0 65.9 79.4;" xml:space="preserve">
<g>
	<polygon points="20.2,65.2 20.2,56.7 33,60.6 45.7,56.7 45.7,65.2 33,61.3 	"/>
	<path d="M33,14.2c-10.8,0-18.8,8.8-18.8,20.7c0,12,7.5,19.5,18.8,19.5c4.6,0,8.8-1.7,12-4.4c4.2-3.7,6.8-9.5,6.8-16.2
		C51.7,21.7,44.3,14.2,33,14.2z M37.4,51.6c-0.3,0.1-0.6,0.2-0.9,0.3c-0.1,0-0.2,0.1-0.3,0.1c-0.4,0.1-0.8,0.2-1.2,0.2
		c-0.1,0-0.1,0-0.2,0c-0.4,0.1-0.9,0.1-1.3,0.1c-7.6,0-13.9-7.2-13.9-18.3c0-10.6,5.4-17.8,12.8-17.8c7.6,0,13.9,7.2,13.9,18.3
		C46.3,42.4,43,49.4,37.4,51.6z"/>
</g>
</svg>
